[STREAM]
index=0
codec_name=unknown
codec_long_name=unknown
profile=unknown
codec_type=data
codec_tag_string=mett
codec_tag=0x7474656d
id=0x1
r_frame_rate=0/0
avg_frame_rate=0/0
time_base=1/90000
start_pts=0
start_time=0.000000
duration_ts=1047219
duration=11.635767
bit_rate=49870
max_bit_rate=N/A
bits_per_raw_sample=N/A
nb_frames=349
nb_read_frames=N/A
nb_read_packets=N/A
DISPOSITION:default=1
DISPOSITION:dub=0
DISPOSITION:original=0
DISPOSITION:comment=0
DISPOSITION:lyrics=0
DISPOSITION:karaoke=0
DISPOSITION:forced=0
DISPOSITION:hearing_impaired=0
DISPOSITION:visual_impaired=0
DISPOSITION:clean_effects=0
DISPOSITION:attached_pic=0
DISPOSITION:timed_thumbnails=0
DISPOSITION:captions=0
DISPOSITION:descriptions=0
DISPOSITION:metadata=0
DISPOSITION:dependent=0
DISPOSITION:still_image=0
TAG:creation_time=2023-07-03T03:17:57.000000Z
TAG:language=eng
TAG:handler_name=MetaHandle
[/STREAM]
[STREAM]
index=1
codec_name=aac
codec_long_name=AAC (Advanced Audio Coding)
profile=LC
codec_type=audio
codec_tag_string=mp4a
codec_tag=0x6134706d
sample_fmt=fltp
sample_rate=48000
channels=2
channel_layout=stereo
bits_per_sample=0
initial_padding=0
id=0x2
r_frame_rate=0/0
avg_frame_rate=0/0
time_base=1/48000
start_pts=0
start_time=0.000000
duration_ts=557857
duration=11.622021
bit_rate=192062
max_bit_rate=N/A
bits_per_raw_sample=N/A
nb_frames=544
nb_read_frames=N/A
nb_read_packets=N/A
extradata_size=2
DISPOSITION:default=1
DISPOSITION:dub=0
DISPOSITION:original=0
DISPOSITION:comment=0
DISPOSITION:lyrics=0
DISPOSITION:karaoke=0
DISPOSITION:forced=0
DISPOSITION:hearing_impaired=0
DISPOSITION:visual_impaired=0
DISPOSITION:clean_effects=0
DISPOSITION:attached_pic=0
DISPOSITION:timed_thumbnails=0
DISPOSITION:captions=0
DISPOSITION:descriptions=0
DISPOSITION:metadata=0
DISPOSITION:dependent=0
DISPOSITION:still_image=0
TAG:creation_time=2023-07-03T03:17:57.000000Z
TAG:language=eng
TAG:handler_name=SoundHandle
TAG:vendor_id=[0][0][0][0]
[/STREAM]
[STREAM]
index=2
codec_name=hevc
codec_long_name=H.265 / HEVC (High Efficiency Video Coding)
profile=Main 10
codec_type=video
codec_tag_string=hvc1
codec_tag=0x31637668
width=1920
height=1080
coded_width=1920
coded_height=1088
closed_captions=0
film_grain=0
has_b_frames=0
sample_aspect_ratio=1:1
display_aspect_ratio=16:9
pix_fmt=yuv420p10le
level=153
color_range=tv
color_space=bt2020nc
color_transfer=arib-std-b67
color_primaries=bt2020
chroma_location=left
field_order=unknown
refs=1
id=0x3
r_frame_rate=30/1
avg_frame_rate=10470000/349073
time_base=1/90000
start_pts=0
start_time=0.000000
duration_ts=1047219
duration=11.635767
bit_rate=22363077
max_bit_rate=N/A
bits_per_raw_sample=N/A
nb_frames=349
nb_read_frames=N/A
nb_read_packets=N/A
extradata_size=112
DISPOSITION:default=1
DISPOSITION:dub=0
DISPOSITION:original=0
DISPOSITION:comment=0
DISPOSITION:lyrics=0
DISPOSITION:karaoke=0
DISPOSITION:forced=0
DISPOSITION:hearing_impaired=0
DISPOSITION:visual_impaired=0
DISPOSITION:clean_effects=0
DISPOSITION:attached_pic=0
DISPOSITION:timed_thumbnails=0
DISPOSITION:captions=0
DISPOSITION:descriptions=0
DISPOSITION:metadata=0
DISPOSITION:dependent=0
DISPOSITION:still_image=0
TAG:creation_time=2023-07-03T03:17:57.000000Z
TAG:language=eng
TAG:handler_name=VideoHandle
TAG:vendor_id=[0][0][0][0]
[/STREAM]
[STREAM]
index=3
codec_name=unknown
codec_long_name=unknown
profile=unknown
codec_type=data
codec_tag_string=mett
codec_tag=0x7474656d
id=0x4
r_frame_rate=0/0
avg_frame_rate=0/0
time_base=1/90000
start_pts=0
start_time=0.000000
duration_ts=1047219
duration=11.635767
bit_rate=N/A
max_bit_rate=N/A
bits_per_raw_sample=N/A
nb_frames=1
nb_read_frames=N/A
nb_read_packets=N/A
DISPOSITION:default=1
DISPOSITION:dub=0
DISPOSITION:original=0
DISPOSITION:comment=0
DISPOSITION:lyrics=0
DISPOSITION:karaoke=0
DISPOSITION:forced=0
DISPOSITION:hearing_impaired=0
DISPOSITION:visual_impaired=0
DISPOSITION:clean_effects=0
DISPOSITION:attached_pic=0
DISPOSITION:timed_thumbnails=0
DISPOSITION:captions=0
DISPOSITION:descriptions=0
DISPOSITION:metadata=0
DISPOSITION:dependent=0
DISPOSITION:still_image=0
TAG:creation_time=2023-07-03T03:17:57.000000Z
TAG:language=eng
TAG:handler_name=MetaHandle
[/STREAM]
